# Exported from Wings 3D 1.5.4
mtllib end_crew_s1.mtl
o mesh1
#109 vertices, 92 faces
v 0.62500000 0.0000000e+0 7.8253296e-18
v 0.60370364 0.0000000e+0 0.16176190
v 0.54126588 0.0000000e+0 0.31250000
v 0.44194174 0.0000000e+0 0.44194174
v 0.31250000 0.0000000e+0 0.54126588
v 0.16176190 0.0000000e+0 0.60370364
v -4.5196333e-18 0.0000000e+0 0.62500000
v -0.16176190 0.0000000e+0 0.60370364
v -0.31250000 0.0000000e+0 0.54126588
v -0.44194174 0.0000000e+0 0.44194174
v -0.54126588 0.0000000e+0 0.31250000
v -0.60370364 0.0000000e+0 0.16176190
v -0.62500000 0.0000000e+0 8.4365755e-17
v -0.60370364 0.0000000e+0 -0.16176190
v -0.54126588 0.0000000e+0 -0.31250000
v -0.44194174 0.0000000e+0 -0.44194174
v -0.31250000 0.0000000e+0 -0.54126588
v -0.16176190 0.0000000e+0 -0.60370364
v -1.5760048e-16 0.0000000e+0 -0.62500000
v 0.16176190 0.0000000e+0 -0.60370364
v 0.31250000 0.0000000e+0 -0.54126588
v 0.44194174 0.0000000e+0 -0.44194174
v 0.54126588 0.0000000e+0 -0.31250000
v 0.60370364 0.0000000e+0 -0.16176190
v 0.48296291 0.0000000e+0 0.12940952
v 0.50000000 0.0000000e+0 -2.4137862e-18
v 0.48296291 0.0000000e+0 -0.12940952
v 0.43301270 0.0000000e+0 -0.25000000
v 0.35355339 0.0000000e+0 -0.35355339
v 0.25000000 0.0000000e+0 -0.43301270
v 0.12940952 0.0000000e+0 -0.48296291
v -1.2695813e-16 0.0000000e+0 -0.50000000
v -0.12940952 0.0000000e+0 -0.48296291
v -0.25000000 0.0000000e+0 -0.43301270
v -0.35355339 0.0000000e+0 -0.35355339
v -0.43301270 0.0000000e+0 -0.25000000
v -0.48296291 0.0000000e+0 -0.12940952
v -0.50000000 0.0000000e+0 5.8818554e-17
v -0.48296291 0.0000000e+0 0.12940952
v -0.43301270 0.0000000e+0 0.25000000
v -0.35355339 0.0000000e+0 0.35355339
v -0.25000000 0.0000000e+0 0.43301270
v -0.12940952 0.0000000e+0 0.48296291
v -4.4934470e-18 0.0000000e+0 0.50000000
v 0.12940952 0.0000000e+0 0.48296291
v 0.25000000 0.0000000e+0 0.43301270
v 0.35355339 0.0000000e+0 0.35355339
v 0.43301270 0.0000000e+0 0.25000000
v 0.48296291 -3.7500000e-2 0.12940952
v 0.50000000 -3.7500000e-2 -2.4137862e-18
v 0.48296291 -3.7500000e-2 -0.12940952
v 0.43301270 -3.7500000e-2 -0.25000000
v 0.35355339 -3.7500000e-2 -0.35355339
v 0.25000000 -3.7500000e-2 -0.43301270
v 0.12940952 -3.7500000e-2 -0.48296291
v -1.2695813e-16 -3.7500000e-2 -0.50000000
v -0.12940952 -3.7500000e-2 -0.48296291
v -0.25000000 -3.7500000e-2 -0.43301270
v -0.35355339 -3.7500000e-2 -0.35355339
v -0.43301270 -3.7500000e-2 -0.25000000
v -0.48296291 -3.7500000e-2 -0.12940952
v -0.50000000 -3.7500000e-2 5.8818554e-17
v -0.48296291 -3.7500000e-2 0.12940952
v -0.43301270 -3.7500000e-2 0.25000000
v -0.35355339 -3.7500000e-2 0.35355339
v -0.25000000 -3.7500000e-2 0.43301270
v -0.12940952 -3.7500000e-2 0.48296291
v -4.4934470e-18 -3.7500000e-2 0.50000000
v 0.12940952 -3.7500000e-2 0.48296291
v 0.25000000 -3.7500000e-2 0.43301270
v 0.35355339 -3.7500000e-2 0.35355339
v 0.43301270 -3.7500000e-2 0.25000000
v -7.8640798e-17 -3.7500000e-2 7.2004414e-17
v -0.31250000 -3.7500000e-2 -0.25000000
v -0.25000000 -3.7500000e-2 -0.31250000
v -0.31250000 -3.7500000e-2 0.25000000
v -0.25000000 -3.7500000e-2 0.31250000
v -0.31250000 1.3877788e-17 -0.25000000
v -0.25000000 1.3877788e-17 -0.31250000
v -0.31250000 1.3877788e-17 0.25000000
v -0.25000000 1.3877788e-17 0.31250000
v 0.25000000 -3.7500000e-2 -0.31250000
v 0.31250000 -3.7500000e-2 -0.25000000
v 0.31250000 -3.7500000e-2 0.25000000
v 0.25000000 -3.7500000e-2 0.31250000
v 0.25000000 1.3877788e-17 -0.31250000
v 0.31250000 1.3877788e-17 -0.25000000
v 0.31250000 1.3877788e-17 0.25000000
v 0.25000000 1.3877788e-17 0.31250000
v 0.30271521 1.3877788e-17 0.28188188
v -0.30271521 1.3877788e-17 0.28188188
v 0.30271521 -3.7500000e-2 0.28188188
v -0.30271521 -3.7500000e-2 0.28188188
v -0.28188188 -3.7500000e-2 0.30271521
v 0.28188188 1.3877788e-17 0.30271521
v -0.28188188 1.3877788e-17 0.30271521
v 0.28188188 -3.7500000e-2 0.30271521
v 0.28188188 -3.7500000e-2 -0.30271521
v -0.28188188 1.3877788e-17 -0.30271521
v 0.28188188 1.3877788e-17 -0.30271521
v -0.28188188 -3.7500000e-2 -0.30271521
v -0.30271521 -3.7500000e-2 -0.28188188
v 0.30271521 1.3877788e-17 -0.28188188
v 0.30271521 -3.7500000e-2 -0.28188188
v -0.30271521 1.3877788e-17 -0.28188188
v -5.5511151e-17 1.3877788e-17 0.31250000
v -5.5511151e-17 1.3877788e-17 -0.31250000
v -5.5511151e-17 -3.7500000e-2 0.31250000
v -5.5511151e-17 -3.7500000e-2 -0.31250000
vt 3.7500000e-2 0.74319186
vt 3.7500000e-2 0.93813243
vt 4.1314905e-2 0.73076172
vt 4.1314905e-2 0.95056257
vt 4.1314905e-2 0.73076172
vt 4.1314905e-2 0.95056257
vt 4.9437429e-2 0.72263919
vt 4.9437429e-2 0.95868510
vt 4.9437429e-2 0.72263919
vt 4.9437429e-2 0.95868510
vt 6.1867571e-2 0.71882429
vt 6.1867571e-2 0.96250000
vt 6.1867571e-2 0.71882429
vt 6.1867571e-2 0.96250000
vt 0.15933786 0.71882429
vt 0.15933786 0.96250000
vt 0.15933786 0.71882429
vt 0.15933786 0.96250000
vt 0.19750877 0.96250000
vt 0.19750877 0.94787946
vt 0.19750877 0.94787946
vt 0.19750877 0.96250000
vt 0.20023666 0.77253779
vt 0.20023676 0.77253779
vt 0.20023676 0.77253779
vt 0.20023676 0.77253779
vt 0.20023676 0.77253779
vt 0.20023676 0.77253779
vt 0.20023676 0.77253779
vt 0.20660179 0.72418983
vt 0.20660189 0.72418983
vt 0.20660189 0.72418983
vt 0.20660189 0.72418983
vt 0.20660189 0.72418983
vt 0.25752283 0.72418983
vt 0.25752293 0.72418983
vt 0.25752293 0.72418983
vt 0.25752293 0.72418983
vt 0.25752293 0.72418983
vt 0.25752293 0.72418983
vt 0.26388796 0.77253779
vt 0.26388806 0.77253779
vt 0.26388806 0.77253779
vt 0.26388806 0.77253779
vt 0.26388806 0.77253779
vt 0.26388806 0.77253779
vt 0.26680363 0.77253779
vt 0.26680373 0.77253779
vt 0.26680373 0.77253779
vt 0.26680373 0.77253779
vt 0.26680373 0.77253779
vt 0.26680373 0.77253779
vt 0.26680373 0.77253779
vt 0.27316876 0.72418983
vt 0.27316886 0.72418983
vt 0.27316886 0.72418983
vt 0.27316886 0.72418983
vt 0.27316886 0.72418983
vt 0.27316886 0.72418983
vt 0.29497905 0.96250000
vt 0.29497905 0.94787946
vt 0.29497905 0.94787946
vt 0.29497905 0.96250000
vt 0.30798143 0.94787946
vt 0.30798143 0.96250000
vt 0.30798143 0.96250000
vt 0.30798143 0.94787946
vt 0.31946842 0.94787946
vt 0.31946842 0.96250000
vt 0.31946842 0.94787946
vt 0.31946842 0.96250000
vt 0.32408980 0.72418983
vt 0.32408990 0.72418983
vt 0.32408990 0.72418983
vt 0.32408990 0.72418983
vt 0.32408990 0.72418983
vt 0.32408990 0.72418983
vt 0.33045493 0.77253779
vt 0.33045503 0.77253779
vt 0.33045503 0.77253779
vt 0.33045503 0.77253779
vt 0.33045503 0.77253779
vt 0.33045503 0.77253779
vt 0.33247080 0.94787946
vt 0.33247080 0.96250000
vt 0.33247080 0.94787946
vt 0.33247080 0.96250000
vt 0.33337060 0.77253779
vt 0.33337060 0.77253779
vt 0.33337060 0.77253779
vt 0.33337060 0.77253779
vt 0.33973573 0.72418983
vt 0.33973573 0.72418983
vt 0.33973573 0.72418983
vt 0.33973573 0.72418983
vt 0.33973573 0.72418983
vt 0.33973573 0.72418983
vt 0.39065677 0.72418983
vt 0.39065677 0.72418983
vt 0.39065677 0.72418983
vt 0.39065677 0.72418983
vt 0.39065677 0.72418983
vt 0.39065677 0.72418983
vt 0.39702190 0.77253779
vt 0.39702190 0.77253779
vt 0.39702190 0.77253779
vt 0.39702190 0.77253779
vt 0.39702190 0.77253779
vt 0.43474253 0.75800860
vt 0.43474253 0.77263814
vt 0.43474253 0.75800860
vt 0.43474253 0.75800860
vt 0.43474253 0.77263814
vt 0.43474253 0.77263814
vt 0.48566357 0.75800860
vt 0.48566357 0.77263814
vt 0.48566357 0.75800860
vt 0.48566357 0.75800860
vt 0.48566357 0.77263814
vt 0.48566357 0.75800860
vt 0.48566357 0.77263814
vt 0.52741137 0.94787946
vt 0.52741137 0.96250000
vt 0.52741137 0.94787946
vt 0.52741137 0.96250000
vt 0.53658461 0.75800860
vt 0.53658461 0.75800860
vt 0.53658461 0.75800860
vt 0.53658461 0.77263814
vt 0.53658461 0.77263814
vt 0.53658461 0.75800860
vt 0.53658461 0.77263814
vt 0.54041375 0.94787946
vt 0.54041375 0.96250000
vt 0.54041375 0.96250000
vt 0.54041375 0.94787946
vt 0.55190073 0.96250000
vt 0.55190073 0.96250000
vt 0.55190073 0.94787946
vt 0.55190073 0.94787946
vt 0.56490311 0.94787946
vt 0.56490311 0.96250000
vt 0.56490311 0.96250000
vt 0.56490311 0.94787946
vt 0.58750565 0.75800860
vt 0.58750565 0.75800860
vt 0.58750565 0.75800860
vt 0.58750565 0.77263814
vt 0.66237340 0.96250000
vt 0.66237340 0.94787946
vt 0.66237340 0.96250000
vt 0.66237340 0.94787946
vt 0.76743938 0.60836332
vt 0.76743938 0.60836332
vt 0.76743938 0.60836332
vt 0.77408591 0.55787791
vt 0.77408591 0.55787791
vt 0.77408591 0.55787791
vt 0.77408591 0.55787791
vt 0.79357255 0.51083301
vt 0.79357255 0.51083301
vt 0.79357255 0.51083301
vt 0.82457131 0.47043463
vt 0.82457131 0.47043463
vt 0.82457131 0.47043463
vt 0.86496969 0.43943586
vt 0.86496969 0.43943586
vt 0.86496969 0.43943586
vt 0.86496969 0.43943586
vt 0.91201460 0.41994923
vt 0.91201460 0.41994923
vt 0.91201460 0.41994923
vt 0.91201460 0.41994923
vt 0.96250000 0.41330270
vt 0.96250000 0.41330270
vt 0.96250000 0.41330270
vt 0.96250000 0.41330270
vt 0.96250000 0.60836332
vt 0.96250000 0.60836332
vt 0.96250000 0.60836332
vt 0.96250000 0.60836332
vn 0.0000000e+0 1.00000000 0.0000000e+0
vn 0.0000000e+0 1.00000000 0.0000000e+0
vn 0.0000000e+0 1.00000000 0.0000000e+0
vn 0.0000000e+0 1.00000000 0.0000000e+0
vn 0.0000000e+0 1.00000000 0.0000000e+0
vn 0.0000000e+0 1.00000000 0.0000000e+0
vn 0.0000000e+0 1.00000000 0.0000000e+0
vn 0.0000000e+0 1.00000000 0.0000000e+0
vn 0.0000000e+0 1.00000000 0.0000000e+0
vn 0.0000000e+0 1.00000000 0.0000000e+0
vn 0.0000000e+0 1.00000000 0.0000000e+0
vn 0.0000000e+0 1.00000000 0.0000000e+0
vn 0.0000000e+0 1.00000000 0.0000000e+0
vn 0.0000000e+0 1.00000000 0.0000000e+0
vn 0.0000000e+0 1.00000000 0.0000000e+0
vn 0.0000000e+0 1.00000000 0.0000000e+0
vn 0.0000000e+0 1.00000000 0.0000000e+0
vn 0.0000000e+0 1.00000000 0.0000000e+0
vn 0.0000000e+0 1.00000000 0.0000000e+0
vn 0.0000000e+0 1.00000000 0.0000000e+0
vn 0.0000000e+0 1.00000000 0.0000000e+0
vn 0.0000000e+0 1.00000000 0.0000000e+0
vn 0.0000000e+0 1.00000000 0.0000000e+0
vn 0.0000000e+0 1.00000000 0.0000000e+0
vn -5.5209992e-33 1.00000000 9.7744162e-19
vn -0.98893620 0.0000000e+0 -0.14834145
vn -0.14834145 0.0000000e+0 -0.98893620
vn -0.98893620 0.0000000e+0 0.14834145
vn -0.14834145 0.0000000e+0 0.98893620
vn 0.14834145 0.0000000e+0 -0.98893620
vn 0.98893620 0.0000000e+0 -0.14834145
vn 0.98893620 0.0000000e+0 0.14834145
vn 0.14834145 0.0000000e+0 0.98893620
vn 0.85689010 0.0000000e+0 0.51549913
vn -0.85689010 0.0000000e+0 0.51549913
vn -0.51549913 0.0000000e+0 0.85689010
vn 0.51549913 0.0000000e+0 0.85689010
vn 0.51549913 0.0000000e+0 -0.85689010
vn -0.51549913 0.0000000e+0 -0.85689010
vn -0.85689010 0.0000000e+0 -0.51549913
vn 0.85689010 0.0000000e+0 -0.51549913
vn 0.0000000e+0 0.0000000e+0 1.00000000
vn 0.0000000e+0 0.0000000e+0 -1.00000000
vn 0.0000000e+0 1.00000000 0.0000000e+0
vn 0.0000000e+0 1.00000000 0.0000000e+0
vn -0.96592583 0.0000000e+0 -0.25881905
vn -0.96592583 0.0000000e+0 -0.25881905
vn 0.0000000e+0 1.00000000 0.0000000e+0
vn 0.0000000e+0 1.00000000 0.0000000e+0
vn -1.00000000 0.0000000e+0 4.1992616e-16
vn -1.00000000 0.0000000e+0 4.1992616e-16
vn 0.0000000e+0 1.00000000 0.0000000e+0
vn 0.0000000e+0 1.00000000 0.0000000e+0
vn -0.96592583 0.0000000e+0 0.25881905
vn -0.96592583 0.0000000e+0 0.25881905
vn 0.0000000e+0 1.00000000 0.0000000e+0
vn 0.0000000e+0 1.00000000 0.0000000e+0
vn -0.86602540 0.0000000e+0 0.50000000
vn -0.86602540 0.0000000e+0 0.50000000
vn 0.0000000e+0 1.00000000 0.0000000e+0
vn 0.0000000e+0 1.00000000 0.0000000e+0
vn -0.70710678 0.0000000e+0 0.70710678
vn -0.70710678 0.0000000e+0 0.70710678
vn 0.0000000e+0 1.00000000 0.0000000e+0
vn 0.0000000e+0 1.00000000 0.0000000e+0
vn -0.50000000 0.0000000e+0 0.86602540
vn -0.50000000 0.0000000e+0 0.86602540
vn 0.0000000e+0 1.00000000 0.0000000e+0
vn 0.0000000e+0 1.00000000 0.0000000e+0
vn -0.25881905 0.0000000e+0 0.96592583
vn -0.25881905 0.0000000e+0 0.96592583
vn 0.0000000e+0 1.00000000 0.0000000e+0
vn 0.0000000e+0 1.00000000 0.0000000e+0
vn 4.4792124e-16 0.0000000e+0 1.00000000
vn 4.4792124e-16 0.0000000e+0 1.00000000
vn 0.0000000e+0 1.00000000 0.0000000e+0
vn 0.0000000e+0 1.00000000 0.0000000e+0
vn 0.25881905 0.0000000e+0 0.96592583
vn 0.25881905 0.0000000e+0 0.96592583
vn 0.0000000e+0 1.00000000 0.0000000e+0
vn 0.0000000e+0 1.00000000 0.0000000e+0
vn 0.50000000 0.0000000e+0 0.86602540
vn 0.50000000 0.0000000e+0 0.86602540
vn 0.0000000e+0 1.00000000 0.0000000e+0
vn 0.0000000e+0 1.00000000 0.0000000e+0
vn 0.70710678 0.0000000e+0 0.70710678
vn 0.70710678 0.0000000e+0 0.70710678
vn 0.0000000e+0 1.00000000 0.0000000e+0
vn 0.0000000e+0 1.00000000 0.0000000e+0
vn 0.86602540 0.0000000e+0 0.50000000
vn 0.86602540 0.0000000e+0 0.50000000
vn 0.0000000e+0 1.00000000 0.0000000e+0
vn 0.0000000e+0 1.00000000 0.0000000e+0
vn 0.96592583 0.0000000e+0 0.25881905
vn 0.96592583 0.0000000e+0 0.25881905
vn 0.0000000e+0 1.00000000 0.0000000e+0
vn 0.0000000e+0 1.00000000 0.0000000e+0
vn 1.00000000 0.0000000e+0 -3.2194339e-16
vn 1.00000000 0.0000000e+0 -3.2194339e-16
vn 0.0000000e+0 1.00000000 0.0000000e+0
vn 0.0000000e+0 1.00000000 0.0000000e+0
vn 0.96592583 0.0000000e+0 -0.25881905
vn 0.96592583 0.0000000e+0 -0.25881905
vn 0.0000000e+0 1.00000000 0.0000000e+0
vn 0.0000000e+0 1.00000000 0.0000000e+0
vn 0.86602540 0.0000000e+0 -0.50000000
vn 0.86602540 0.0000000e+0 -0.50000000
vn 0.0000000e+0 1.00000000 0.0000000e+0
vn 0.0000000e+0 1.00000000 0.0000000e+0
vn 0.70710678 0.0000000e+0 -0.70710678
vn 0.70710678 0.0000000e+0 -0.70710678
vn 0.0000000e+0 1.00000000 0.0000000e+0
vn 0.0000000e+0 1.00000000 0.0000000e+0
vn 0.50000000 0.0000000e+0 -0.86602540
vn 0.50000000 0.0000000e+0 -0.86602540
vn 0.0000000e+0 1.00000000 0.0000000e+0
vn 0.0000000e+0 1.00000000 0.0000000e+0
vn 0.25881905 0.0000000e+0 -0.96592583
vn 0.25881905 0.0000000e+0 -0.96592583
vn 0.0000000e+0 1.00000000 0.0000000e+0
vn 0.0000000e+0 1.00000000 0.0000000e+0
vn -3.4993847e-16 0.0000000e+0 -1.00000000
vn -3.4993847e-16 0.0000000e+0 -1.00000000
vn 0.0000000e+0 1.00000000 0.0000000e+0
vn 0.0000000e+0 1.00000000 0.0000000e+0
vn -0.25881905 0.0000000e+0 -0.96592583
vn -0.25881905 0.0000000e+0 -0.96592583
vn 0.0000000e+0 1.00000000 0.0000000e+0
vn 0.0000000e+0 1.00000000 0.0000000e+0
vn -0.50000000 0.0000000e+0 -0.86602540
vn -0.50000000 0.0000000e+0 -0.86602540
vn 0.0000000e+0 1.00000000 0.0000000e+0
vn 0.0000000e+0 1.00000000 0.0000000e+0
vn -0.70710678 0.0000000e+0 -0.70710678
vn -0.70710678 0.0000000e+0 -0.70710678
vn 0.0000000e+0 1.00000000 0.0000000e+0
vn 0.0000000e+0 1.00000000 0.0000000e+0
vn -0.86602540 0.0000000e+0 -0.50000000
vn -0.86602540 0.0000000e+0 -0.50000000
vn -0.96592583 0.0000000e+0 -0.25881905
vn -0.96592583 0.0000000e+0 -0.25881905
vn 2.6809827e-17 1.00000000 -1.3404914e-17
vn 2.6809827e-17 1.00000000 -1.3404914e-17
vn -1.00000000 0.0000000e+0 4.1992616e-16
vn -1.00000000 0.0000000e+0 4.1992616e-16
vn 2.7755576e-17 1.00000000 -4.3565969e-17
vn 2.7755576e-17 1.00000000 -4.3565969e-17
vn -0.96592583 0.0000000e+0 0.25881905
vn -0.96592583 0.0000000e+0 0.25881905
vn 2.6809827e-17 1.00000000 2.3458599e-17
vn 2.6809827e-17 1.00000000 2.3458599e-17
vn -0.86602540 0.0000000e+0 0.50000000
vn -0.86602540 0.0000000e+0 0.50000000
vn 2.4037034e-17 1.00000000 -3.3512284e-18
vn 2.4037034e-17 1.00000000 -3.3512284e-18
vn -0.70710678 0.0000000e+0 0.70710678
vn -0.70710678 0.0000000e+0 0.70710678
vn 1.9626156e-17 1.00000000 -4.6917198e-17
vn 1.9626156e-17 1.00000000 -4.6917198e-17
vn -0.50000000 0.0000000e+0 0.86602540
vn -0.50000000 0.0000000e+0 0.86602540
vn 1.3877788e-17 1.00000000 -3.3512284e-17
vn 1.3877788e-17 1.00000000 -3.3512284e-17
vn -0.25881905 0.0000000e+0 0.96592583
vn -0.25881905 0.0000000e+0 0.96592583
vn 7.1836716e-18 1.00000000 -2.6809827e-17
vn 7.1836716e-18 1.00000000 -2.6809827e-17
vn 4.4792124e-16 0.0000000e+0 1.00000000
vn 4.4792124e-16 0.0000000e+0 1.00000000
vn -1.1940766e-32 1.00000000 -2.6809827e-17
vn -1.1940766e-32 1.00000000 -2.6809827e-17
vn 0.25881905 0.0000000e+0 0.96592583
vn 0.25881905 0.0000000e+0 0.96592583
vn -7.1836716e-18 1.00000000 4.3140831e-32
vn -7.1836716e-18 1.00000000 4.3140831e-32
vn 0.50000000 0.0000000e+0 0.86602540
vn 0.50000000 0.0000000e+0 0.86602540
vn -1.3877788e-17 1.00000000 -1.3404914e-17
vn -1.3877788e-17 1.00000000 -1.3404914e-17
vn 0.70710678 0.0000000e+0 0.70710678
vn 0.70710678 0.0000000e+0 0.70710678
vn -1.9626156e-17 1.00000000 -4.6917198e-17
vn -1.9626156e-17 1.00000000 -4.6917198e-17
vn 0.86602540 0.0000000e+0 0.50000000
vn 0.86602540 0.0000000e+0 0.50000000
vn -2.4037034e-17 1.00000000 -2.0107370e-17
vn -2.4037034e-17 1.00000000 -2.0107370e-17
vn 0.96592583 0.0000000e+0 0.25881905
vn 0.96592583 0.0000000e+0 0.25881905
vn -2.6809827e-17 1.00000000 -1.0053685e-17
vn -2.6809827e-17 1.00000000 -1.0053685e-17
vn 1.00000000 0.0000000e+0 -3.2194339e-16
vn 1.00000000 0.0000000e+0 -3.2194339e-16
vn -2.7755576e-17 1.00000000 1.1729299e-17
vn -2.7755576e-17 1.00000000 1.1729299e-17
vn 0.96592583 0.0000000e+0 -0.25881905
vn 0.96592583 0.0000000e+0 -0.25881905
vn -2.6809827e-17 1.00000000 3.1836670e-17
vn -2.6809827e-17 1.00000000 3.1836670e-17
vn 0.86602540 0.0000000e+0 -0.50000000
vn 0.86602540 0.0000000e+0 -0.50000000
vn -2.4037034e-17 1.00000000 2.3458599e-17
vn -2.4037034e-17 1.00000000 2.3458599e-17
vn 0.70710678 0.0000000e+0 -0.70710678
vn 0.70710678 0.0000000e+0 -0.70710678
vn -1.9626156e-17 1.00000000 1.6948184e-32
vn -1.9626156e-17 1.00000000 1.6948184e-32
vn 0.50000000 0.0000000e+0 -0.86602540
vn 0.50000000 0.0000000e+0 -0.86602540
vn -1.3877788e-17 1.00000000 6.1629758e-33
vn -1.3877788e-17 1.00000000 6.1629758e-33
vn 0.25881905 0.0000000e+0 -0.96592583
vn 0.25881905 0.0000000e+0 -0.96592583
vn -7.1836716e-18 1.00000000 4.0214741e-17
vn -7.1836716e-18 1.00000000 4.0214741e-17
vn -3.4993847e-16 0.0000000e+0 -1.00000000
vn -3.4993847e-16 0.0000000e+0 -1.00000000
vn 1.0014836e-32 1.00000000 4.0214741e-17
vn 1.0014836e-32 1.00000000 4.0214741e-17
vn -0.25881905 0.0000000e+0 -0.96592583
vn -0.25881905 0.0000000e+0 -0.96592583
vn 7.1836716e-18 1.00000000 5.3619655e-17
vn 7.1836716e-18 1.00000000 5.3619655e-17
vn -0.50000000 0.0000000e+0 -0.86602540
vn -0.50000000 0.0000000e+0 -0.86602540
vn 1.3877788e-17 1.00000000 4.6917198e-17
vn 1.3877788e-17 1.00000000 4.6917198e-17
vn -0.70710678 0.0000000e+0 -0.70710678
vn -0.70710678 0.0000000e+0 -0.70710678
vn 1.9626156e-17 1.00000000 6.7024568e-18
vn 1.9626156e-17 1.00000000 6.7024568e-18
vn -0.86602540 0.0000000e+0 -0.50000000
vn -0.86602540 0.0000000e+0 -0.50000000
vn 2.4037034e-17 1.00000000 3.0161056e-17
vn 2.4037034e-17 1.00000000 3.0161056e-17
vn 0.0000000e+0 1.00000000 0.0000000e+0
vn -0.98893620 0.0000000e+0 -0.14834145
vn -0.98893620 0.0000000e+0 -0.14834145
vn 0.0000000e+0 1.00000000 0.0000000e+0
vn -0.14834145 0.0000000e+0 -0.98893620
vn -0.14834145 0.0000000e+0 -0.98893620
vn 0.0000000e+0 1.00000000 0.0000000e+0
vn -0.98893620 0.0000000e+0 0.14834145
vn -0.98893620 0.0000000e+0 0.14834145
vn 0.0000000e+0 1.00000000 0.0000000e+0
vn -0.14834145 0.0000000e+0 0.98893620
vn -0.14834145 0.0000000e+0 0.98893620
vn 0.14834145 0.0000000e+0 -0.98893620
vn 0.0000000e+0 1.00000000 0.0000000e+0
vn 0.14834145 0.0000000e+0 -0.98893620
vn 0.98893620 0.0000000e+0 -0.14834145
vn 0.98893620 0.0000000e+0 -0.14834145
vn 0.0000000e+0 1.00000000 0.0000000e+0
vn 0.98893620 0.0000000e+0 0.14834145
vn 0.98893620 0.0000000e+0 0.14834145
vn 0.0000000e+0 1.00000000 0.0000000e+0
vn 0.14834145 0.0000000e+0 0.98893620
vn 0.14834145 0.0000000e+0 0.98893620
vn 0.0000000e+0 1.00000000 0.0000000e+0
vn 0.85689010 0.0000000e+0 0.51549913
vn 0.85689010 0.0000000e+0 0.51549913
vn 0.0000000e+0 1.00000000 0.0000000e+0
vn 0.0000000e+0 1.00000000 0.0000000e+0
vn -0.85689010 0.0000000e+0 0.51549913
vn -0.85689010 0.0000000e+0 0.51549913
vn 0.51549913 0.0000000e+0 0.85689010
vn 0.51549913 0.0000000e+0 0.85689010
vn 0.0000000e+0 1.00000000 0.0000000e+0
vn 0.0000000e+0 1.00000000 0.0000000e+0
vn -0.51549913 0.0000000e+0 0.85689010
vn -0.51549913 0.0000000e+0 0.85689010
vn 0.0000000e+0 1.00000000 0.0000000e+0
vn -0.51549913 0.0000000e+0 -0.85689010
vn -0.51549913 0.0000000e+0 -0.85689010
vn 0.51549913 0.0000000e+0 -0.85689010
vn 0.51549913 0.0000000e+0 -0.85689010
vn 0.0000000e+0 1.00000000 0.0000000e+0
vn 0.85689010 0.0000000e+0 -0.51549913
vn 0.85689010 0.0000000e+0 -0.51549913
vn 0.0000000e+0 1.00000000 0.0000000e+0
vn 0.0000000e+0 1.00000000 0.0000000e+0
vn -0.85689010 0.0000000e+0 -0.51549913
vn -0.85689010 0.0000000e+0 -0.51549913
vn 0.0000000e+0 1.00000000 0.0000000e+0
vn 0.0000000e+0 0.0000000e+0 1.00000000
vn 0.0000000e+0 1.00000000 0.0000000e+0
vn 0.0000000e+0 0.0000000e+0 1.00000000
vn 0.0000000e+0 1.00000000 0.0000000e+0
vn 0.0000000e+0 0.0000000e+0 -1.00000000
vn 0.0000000e+0 1.00000000 0.0000000e+0
vn 0.0000000e+0 0.0000000e+0 -1.00000000
g mesh1_mesh1_auv
usemtl mesh1_auv
s 1
f 1/23/1 26/30/48 25/35/44 2/41/2
f 2/47/2 25/54/45 48/72/137 3/78/3
f 3/91/3 48/97/136 47/103/133 4/108/4
f 4/24/4 47/32/132 46/38/129 5/43/5
f 5/48/5 46/55/128 45/74/125 6/79/6
f 6/88/6 45/95/124 44/100/121 7/105/7
f 7/24/7 44/31/120 43/36/117 8/42/8
f 8/50/8 43/58/116 42/77/113 9/82/9
f 9/90/9 42/96/112 41/100/109 10/106/10
f 10/29/10 41/33/108 40/39/105 11/44/11
f 11/49/11 40/58/104 39/75/101 12/83/12
f 12/90/12 39/96/100 38/101/97 13/106/13
f 13/28/13 38/32/96 37/37/93 14/45/14
f 14/52/14 37/58/92 36/76/89 15/81/15
f 15/90/15 36/94/88 35/98/85 16/105/16
f 16/25/16 35/34/84 34/38/81 17/43/17
f 17/51/17 34/56/80 33/73/77 18/79/18
f 18/89/18 33/93/76 32/99/73 19/107/19
f 19/27/19 32/32/72 31/38/69 20/46/20
f 20/53/20 31/57/68 30/75/65 21/80/21
f 21/88/21 30/96/64 29/102/61 22/106/22
f 22/26/22 29/34/60 28/40/57 23/43/23
f 23/51/23 28/59/56 27/75/53 24/79/24
f 24/88/24 27/92/52 26/98/49 1/104/1
f 49/157/143 73/181/25 72/160/235
f 50/153/146 73/181/25 49/157/142
f 51/156/150 73/178/25 50/153/147
f 52/161/154 73/178/25 51/156/151
f 53/164/158 73/178/25 52/161/155
f 54/169/162 73/178/25 53/164/159
f 55/172/166 73/178/25 54/169/163
f 56/176/170 73/178/25 55/172/167
f 57/171/174 73/179/25 56/177/171
f 58/167/178 73/179/25 57/171/175
f 59/165/182 73/179/25 58/167/179
f 60/162/186 73/179/25 59/165/183
f 61/158/190 73/179/25 60/162/187
f 62/154/194 73/179/25 61/158/191
f 63/159/198 73/180/25 62/155/195
f 64/160/202 73/180/25 63/159/199
f 65/164/206 73/180/25 64/160/203
f 66/166/210 73/180/25 65/164/207
f 67/170/214 73/180/25 66/166/211
f 68/174/218 73/180/25 67/170/215
f 69/173/222 73/181/25 68/175/219
f 70/168/226 73/181/25 69/173/223
f 71/163/230 73/181/25 70/168/227
f 72/160/234 73/181/25 71/163/231
f 75/61/27 79/60/240 107/19/289 109/20/43
f 76/124/28 80/123/243 78/85/237 74/84/26
f 76/124/28 93/136/35 91/135/264 80/123/244
f 82/141/30 109/150/43 107/149/291 86/143/250
f 83/122/31 87/125/251 88/87/254 84/86/32
f 85/62/33 97/64/37 95/66/267 89/63/258
f 88/87/255 90/69/261 92/68/34 84/86/32
f 89/63/257 106/22/285 108/21/42 85/62/33
f 94/140/36 96/137/270 91/135/265 93/136/35
f 95/66/266 97/64/37 92/68/34 90/69/260
f 96/137/271 94/140/36 77/144/29 81/142/246
f 100/138/276 98/139/38 82/141/30 86/143/248
f 101/67/39 99/65/274 79/60/241 75/61/27
f 102/70/40 105/71/282 99/65/273 101/67/39
f 103/134/278 104/133/41 98/139/38 100/138/275
f 104/133/41 103/134/279 87/125/252 83/122/31
f 105/71/283 102/70/40 74/84/26 78/85/238
f 108/152/42 106/151/287 81/142/247 77/144/29
s 2
f 25/119/47 49/117/141 72/131/233 48/132/139
f 26/114/50 50/111/144 49/117/140 25/119/46
f 27/129/54 51/127/148 50/147/145 26/148/51
f 28/116/58 52/118/152 51/127/149 27/129/55
f 29/113/62 53/112/156 52/118/153 28/116/59
f 30/129/66 54/128/160 53/145/157 29/148/63
f 31/116/70 55/115/164 54/128/161 30/129/67
f 32/113/74 56/111/168 55/115/165 31/116/71
f 33/130/78 57/126/172 56/146/169 32/148/75
f 34/119/82 58/117/176 57/126/173 33/130/79
f 35/110/86 59/109/180 58/117/177 34/119/83
f 36/129/90 60/126/184 59/146/181 35/148/87
f 37/116/94 61/115/188 60/126/185 36/129/91
f 38/113/98 62/112/192 61/115/189 37/116/95
f 39/129/102 63/126/196 62/146/193 38/148/99
f 40/119/106 64/117/200 63/126/197 39/129/103
f 41/113/110 65/111/204 64/117/201 40/119/107
f 42/132/114 66/131/208 65/146/205 41/148/111
f 43/121/118 67/120/212 66/131/209 42/132/115
f 44/113/122 68/111/216 67/120/213 43/121/119
f 45/132/126 69/131/220 68/146/217 44/148/123
f 46/121/130 70/117/224 69/131/221 45/132/127
f 47/113/134 71/111/228 70/117/225 46/121/131
f 48/132/138 72/131/232 71/146/229 47/148/135
f 80/1/242 91/5/263 96/9/269 81/13/245 106/17/284 107/18/288 79/14/239 99/10/272 105/6/281 78/2/236
f 87/2/253 103/4/280 100/8/277 86/12/249 107/16/290 106/15/286 89/11/259 95/7/268 90/3/262 88/1/256
