# Exported from Wings 3D 1.5.4
mtllib flag.mtl
o flag1
#7 vertices, 6 faces
v -0.12690494 0.13875000 -0.95100837
v -0.12690494 0.29875000 -0.95100837
v 0.12690494 0.13875000 -0.95100837
v 0.12690494 0.29875000 -0.95100837
v -1.9428903e-16 0.29875000 -0.96771572
v -1.9428903e-16 0.13875000 -0.96771572
v -1.9428903e-16 0.21875000 -0.96771572
vt 0.0000000e+0 3.7519628e-16
vt 0.0000000e+0 1.00000000
vt 0.50000000 1.9908030e-16
vt 0.50000000 0.50000000
vt 0.50000000 1.00000000
vt 1.00000000 2.2964309e-17
vt 1.00000000 1.00000000
vn -0.13052619 0.0000000e+0 -0.99144486
vn -0.13052619 0.0000000e+0 -0.99144486
vn 0.13052619 0.0000000e+0 -0.99144486
vn 0.13052619 0.0000000e+0 -0.99144486
vn 8.3985232e-17 0.0000000e+0 -1.00000000
vn -5.5990155e-17 0.0000000e+0 -1.00000000
vn -1.3997539e-17 0.0000000e+0 -1.00000000
g flag1_flag1_auv
usemtl flag1_auv
s 1
f 1/6/1 7/4/7 6/3/6
f 2/7/2 7/4/7 1/6/1
f 3/1/3 7/4/7 4/2/4
f 4/2/4 7/4/7 5/5/5
f 5/5/5 7/4/7 2/7/2
f 6/3/6 7/4/7 3/1/3
